<?xml version="1.0" encoding="UTF-8" standalone="no"?>
<svg
   width="512"
   height="512"
   viewBox="0 0 512 512"
   version="1.1"
   id="svg1"
   xmlns="http://www.w3.org/2000/svg"
   xmlns:svg="http://www.w3.org/2000/svg">
  <defs
     id="defs1">
    <clipPath
       clipPathUnits="userSpaceOnUse"
       id="clipPath5">
      <rect
         style="display:block;fill:#000000;fill-opacity:1;stroke:none;stroke-width:0;stroke-dasharray:none;stroke-opacity:1"
         id="rect5"
         width="59.132328"
         height="295.1337"
         x="43.293316"
         y="110.87311" />
    </clipPath>
    <clipPath
       clipPathUnits="userSpaceOnUse"
       id="clipPath5-7">
      <rect
         style="display:block;fill:#000000;fill-opacity:1;stroke:none;stroke-width:0;stroke-dasharray:none;stroke-opacity:1"
         id="rect5-7"
         width="59.132328"
         height="295.1337"
         x="43.293316"
         y="110.87311" />
    </clipPath>
  </defs>
  <g
     id="layer3">
    <path
       style="fill:none;fill-opacity:1;stroke:#000000;stroke-width:62.153;stroke-dasharray:none"
       id="path2"
       d="m 100,92.629898 a 131.72746,163.37041 0 0 1 114.07933,81.685202 131.72746,163.37041 0 0 1 0,163.37041 A 131.72746,163.37041 0 0 1 100,419.37071" />
    <path
       style="fill:none;fill-opacity:1;stroke:#000000;stroke-width:62.1529;stroke-dasharray:none"
       id="path2-9"
       d="M -411.81171,92.629852 A 131.72725,163.37015 0 0 1 -280.08446,256 131.72725,163.37015 0 0 1 -411.81171,419.37015"
       transform="scale(-1,1)" />
  </g>
  <g
     id="layer1"
     style="display:inline">
    <circle
       style="fill:#ff6600;fill-opacity:1;stroke:#000000;stroke-width:2;stroke-dasharray:none;stroke-opacity:1;image-rendering:auto"
       id="path1"
       cx="75.793991"
       cy="75.532074"
       r="63.356068" />
    <circle
       style="fill:#ff6600;stroke:#000000;stroke-width:2;stroke-dasharray:none;stroke-opacity:1;image-rendering:auto"
       id="path1-5"
       cx="75.793991"
       cy="436.46793"
       r="63.356068" />
    <circle
       style="fill:#ff6600;stroke:#000000;stroke-width:2;stroke-dasharray:none;stroke-opacity:1;image-rendering:auto"
       id="path1-2"
       cx="436.20599"
       cy="75.532074"
       r="63.356068" />
    <circle
       style="fill:#ff6600;stroke:#000000;stroke-width:2;stroke-dasharray:none;stroke-opacity:1;image-rendering:auto"
       id="path1-4"
       cx="436.20599"
       cy="436.46793"
       r="63.356068" />
  </g>
</svg>
