<svg xmlns="http://www.w3.org/2000/svg" width="1277" height="1984" viewBox="0 0 1277 1984">
  <title>Checkmate — crowned knight</title>
  <desc>Black chess knight with a yellow crown. Background and eye are transparent.</desc>
  <g fill="#ffcc00">
    <circle cx="319" cy="55" r="51"/>
    <circle cx="649.5" cy="39" r="39"/>
    <circle cx="80" cy="284" r="39"/>
    <path d="M 138 378 C 123 353 147 331 168 338 L 286 362 C 305 367 317 357 321 339 L 350 174 C 355 145 377 139 399 158 L 529 250 C 548 263 565 255 574 237 L 622 147 C 634 122 663 127 673 149 L 697 286 C 700 301 691 313 678 320 L 247 513 C 231 521 217 515 209 501 Z"/>
  </g>
  <path fill="#000000" fill-rule="evenodd" d="
    M 258 572
    L 709 373
    C 721 367 732 368 744 373
    C 1007 482 1152 578 1227 784
    C 1294 966 1265 1161 1239 1325
    C 1217 1462 1198 1572 1211 1729
    C 1218 1826 1238 1906 1273 1965
    C 1281 1978 1272 1984 1260 1984
    L 451 1984
    C 368 1939 331 1874 329 1781
    C 322 1631 411 1460 518 1317
    C 602 1204 711 1096 775 997
    C 800 959 817 923 811 896
    C 806 876 791 867 783 883
    C 733 1001 619 1055 486 1051
    C 479 1050 475 1055 471 1062
    L 377 1200
    C 354 1290 323 1347 267 1367
    C 238 1377 204 1374 177 1363
    C 163 1358 161 1351 167 1340
    C 185 1309 205 1278 199 1264
    C 195 1253 179 1248 172 1253
    C 168 1256 163 1266 157 1274
    L 126 1318
    C 122 1325 117 1327 109 1325
    C 35 1314 0 1263 0 1204
    C 0 1177 2 1153 9 1134
    C 128 919 220 732 250 584
    C 251 578 253 575 258 572 Z
    M 392 730
    L 293 823
    C 282 833 283 848 294 857
    C 303 865 316 863 326 854
    L 424 762
    C 435 752 435 738 425 729
    C 415 720 402 721 392 730 Z"/>
</svg>
